<svg width="54" height="28" viewBox="0 0 54 28" fill="none" xmlns="http://www.w3.org/2000/svg">
<path d="M20.2154 0.0343553H14.2962L10.1769 13.1926L6.3 0.0343553H0V27.9656H4.88077V9.31043L7.37308 18.8613H12.9115L15.3346 9.55092V27.9656H20.2154V0.0343553Z" fill="white"/>
<path d="M49.05 19.6172C49.05 19.6515 49.05 19.6859 49.05 19.7202C49.05 21.6098 47.4923 23.1215 45.6231 23.1215C43.7192 23.1215 42.1962 21.5755 42.1962 19.7202V8.27975C42.1962 6.39018 43.7538 4.87853 45.6231 4.87853C47.5269 4.87853 49.05 6.42454 49.05 8.27975C49.05 8.31411 49.05 8.34847 49.05 8.38282V11.0626H54V8.31411C54 3.71043 50.2615 0 45.6231 0L29.7692 0.0687117C33.9577 0.515337 37.2462 4.05399 37.2462 8.31411V11.0626H32.2962V8.38282C32.2962 8.34847 32.2962 8.31411 32.2962 8.27975C32.2962 6.39018 30.7385 4.87853 28.8692 4.87853C26.9654 4.87853 25.4423 6.42454 25.4423 8.27975V19.7202C25.4423 21.6098 27 23.1215 28.8692 23.1215C30.7731 23.1215 32.2962 21.5755 32.2962 19.7202C32.2962 19.6859 32.2962 19.6515 32.2962 19.6172V17.1092H37.2462V20.2012H37.2115C36.9 24.5301 33.3 27.9656 28.8346 27.9656C28.7654 27.9656 28.6962 27.9656 28.6269 27.9656C28.8 28 28.9038 28 28.9038 28L45.6231 27.9656C50.0538 27.9656 53.6885 24.5301 53.9654 20.1669H54V17.0748H49.05V19.6172Z" fill="white"/>
</svg>
